<svg xmlns="http://www.w3.org/2000/svg" viewBox="0 0 100 100" width="100" height="100">
  <defs>
    <linearGradient id="gradient" x1="0%" y1="0%" x2="100%" y2="100%">
      <stop offset="0%" style="stop-color:#667eea;stop-opacity:1" />
      <stop offset="100%" style="stop-color:#764ba2;stop-opacity:1" />
    </linearGradient>
  </defs>
  
  <!-- Background circle -->
  <circle cx="50" cy="50" r="48" fill="url(#gradient)" stroke="none"/>
  
  <!-- SFCC symbol - stylized cloud with commerce elements -->
  <g fill="white">
    <!-- Cloud shape -->
    <path d="M25 45c0-8 6-15 15-15 2 0 4 0.5 6 1.5 3-6 9-10 16-10 10 0 18 8 18 18 0 1-0.1 2-0.3 3 4 2 7 6 7 11 0 7-6 13-13 13H30c-6 0-11-5-11-11 0-4 2-8 6-10z" opacity="0.9"/>
    
    <!-- Commerce/code elements -->
    <circle cx="35" cy="40" r="2"/>
    <circle cx="45" cy="38" r="2"/>
    <circle cx="55" cy="40" r="2"/>
    <circle cx="65" cy="42" r="2"/>
    
    <!-- Connection lines -->
    <path d="M37 40 L43 38 M47 38 L53 40 M57 40 L63 42" stroke="white" stroke-width="1.5" fill="none" opacity="0.7"/>
  </g>
  
  <!-- MCP indicator -->
  <text x="50" y="70" text-anchor="middle" fill="white" font-family="Arial, sans-serif" font-size="8" font-weight="bold" opacity="0.8">MCP</text>
</svg>
